<?xml version="1.0" encoding="UTF-8" standalone="no"?>
<!-- Created with Inkscape (http://www.inkscape.org/) -->

<svg
   xmlns:dc="http://purl.org/dc/elements/1.1/"
   xmlns:cc="http://creativecommons.org/ns#"
   xmlns:rdf="http://www.w3.org/1999/02/22-rdf-syntax-ns#"
   xmlns:svg="http://www.w3.org/2000/svg"
   xmlns="http://www.w3.org/2000/svg"
   xmlns:sodipodi="http://sodipodi.sourceforge.net/DTD/sodipodi-0.dtd"
   xmlns:inkscape="http://www.inkscape.org/namespaces/inkscape"
   width="210mm"
   height="297mm"
   viewBox="0 0 744.09448819 1052.3622047"
   id="svg3340"
   version="1.1"
   inkscape:version="0.91 r13725"
   sodipodi:docname="drawing1.svg"
   inkscape:export-filename="H:\Profile picture.png"
   inkscape:export-xdpi="90"
   inkscape:export-ydpi="90">
  <defs
     id="defs3342" />
  <sodipodi:namedview
     id="base"
     pagecolor="#ffffff"
     bordercolor="#666666"
     borderopacity="1.0"
     inkscape:pageopacity="0.0"
     inkscape:pageshadow="2"
     inkscape:zoom="0.5"
     inkscape:cx="1355.6638"
     inkscape:cy="660.28675"
     inkscape:document-units="px"
     inkscape:current-layer="layer1"
     showgrid="false"
     inkscape:window-width="1920"
     inkscape:window-height="1018"
     inkscape:window-x="-8"
     inkscape:window-y="-8"
     inkscape:window-maximized="1" />
  <metadata
     id="metadata3345">
    <rdf:RDF>
      <cc:Work
         rdf:about="">
        <dc:format>image/svg+xml</dc:format>
        <dc:type
           rdf:resource="http://purl.org/dc/dcmitype/StillImage" />
        <dc:title></dc:title>
      </cc:Work>
    </rdf:RDF>
  </metadata>
  <g
     inkscape:label="Layer 1"
     inkscape:groupmode="layer"
     id="layer1">
    <g
       id="g4352"
       transform="matrix(-1,0,0,1,-8567.4073,-3.0449664)" />
    <g
       id="g4413"
       transform="matrix(0.71643488,0,0,0.71643488,3433.3933,6916.9565)"
       inkscape:export-xdpi="90"
       inkscape:export-ydpi="90">
      <ellipse
         ry="514.08057"
         rx="393.30258"
         cy="-8807.9531"
         cx="-4306.9268"
         id="path4320"
         style="opacity:1;fill:#4d4d4d;fill-opacity:1" />
      <path
         sodipodi:nodetypes="cccscscsccc"
         inkscape:connector-curvature="0"
         id="rect4324"
         d="m -4306.9266,-8805.4554 46.4722,96.8419 143.9444,258.2551 c 0,0 203.9273,-214.2423 204.2996,-291.4822 0.2164,-44.8811 -13.8829,215.7829 -13.8829,215.7829 0,0 -201.3068,264.0865 -380.8333,264.0865 -179.5266,0 -380.8334,-264.0865 -380.8334,-264.0865 0,0 -17.231,-260.6417 -15.7967,-215.7829 2.2862,71.4984 206.2134,291.4822 206.2134,291.4822 l 143.9443,-258.2551 z"
         style="opacity:1;fill:#cccccc;fill-opacity:1" />
      <g
         id="g4332">
        <path
           style="opacity:1;fill:#cccccc;fill-opacity:1"
           d="m -4404.6289,-9419.5178 94.5427,564.138 48.5353,100.0578 61.141,-85.8764 54.8381,7.0907 54.8382,7.0907 54.838,7.0907 54.8382,7.0908 54.8381,7.0906 54.8381,7.0908 c -1.4314,-133.3285 -42.6147,-324.4333 -127.0568,-422.7167 -21.1105,-24.5709 -49.2806,-48.4234 -81.6041,-70.5853 -32.3236,-22.1619 -68.8006,-42.6333 -106.5248,-60.4418 -37.7242,-17.8085 -121.2036,-12.9734 -139.2194,-47.6164 -21.5553,-41.4493 -47.7544,-16.235 -78.8426,-19.5035 z"
           id="path4330"
           inkscape:connector-curvature="0"
           sodipodi:nodetypes="ccccccccccssssc" />
        <path
           style="fill:none;fill-rule:evenodd;stroke:#000000;stroke-width:4.11653852;stroke-linecap:butt;stroke-linejoin:miter;stroke-miterlimit:4;stroke-dasharray:none;stroke-opacity:1"
           d="m -4238.147,-9386.1822 c 6.3028,126.057 296.234,252.1141 296.234,252.1141"
           id="path4347"
           inkscape:connector-curvature="0" />
        <g
           id="g4236"
           transform="matrix(0.82330766,0,0,0.82330766,-865.59731,-1554.9983)">
          <circle
             r="42.105385"
             cy="-9209.8682"
             cx="-3969.3896"
             id="path4229"
             style="opacity:1;fill:#000000;fill-opacity:1;stroke-width:4;stroke-miterlimit:4;stroke-dasharray:none" />
          <rect
             y="-9185.7637"
             x="-3984.5283"
             height="91.866295"
             width="30.622099"
             id="rect4231"
             style="opacity:1;fill:#000000;fill-opacity:1;stroke-width:4;stroke-miterlimit:4;stroke-dasharray:none" />
        </g>
        <rect
           style="opacity:1;fill:#000000;fill-opacity:1;stroke-width:4;stroke-miterlimit:4;stroke-dasharray:none"
           id="rect4234"
           width="26.787121"
           height="26.787121"
           x="-4145.7368"
           y="-9022.9512" />
        <path
           style="fill:none;fill-rule:evenodd;stroke:#000000;stroke-width:6.58646107;stroke-linecap:butt;stroke-linejoin:miter;stroke-miterlimit:4;stroke-dasharray:none;stroke-opacity:1"
           d="m -4168.9575,-9345.4263 c 3.1514,80.3613 3.1514,80.3613 3.1514,80.3613"
           id="path4243"
           inkscape:connector-curvature="0" />
        <path
           style="fill:none;fill-rule:evenodd;stroke:#000000;stroke-width:6.58646107;stroke-linecap:butt;stroke-linejoin:miter;stroke-miterlimit:4;stroke-dasharray:none;stroke-opacity:1"
           d="m -4090.1719,-9298.155 1.5757,85.0885"
           id="path4245"
           inkscape:connector-curvature="0" />
        <path
           style="fill:none;fill-rule:evenodd;stroke:#000000;stroke-width:6.58646107;stroke-linecap:butt;stroke-linejoin:miter;stroke-miterlimit:4;stroke-dasharray:none;stroke-opacity:1"
           d="m -4019.5676,-9245.3079 0,74.0585"
           id="path4247"
           inkscape:connector-curvature="0" />
        <path
           style="opacity:1;fill:#808080;fill-opacity:1;stroke-width:8;stroke-miterlimit:4;stroke-dasharray:none"
           d="m -4257.3131,-8838.0666 a 25.626539,25.626539 0 0 0 -25.627,25.6271 25.626539,25.626539 0 0 0 25.627,25.627 25.626539,25.626539 0 0 0 25.6255,-25.627 25.626539,25.626539 0 0 0 -25.6255,-25.6271 z m 0,14.1811 a 11.445122,11.445122 0 0 1 11.4444,11.446 11.445122,11.445122 0 0 1 -11.4444,11.4459 11.445122,11.445122 0 0 1 -11.4459,-11.4459 11.445122,11.445122 0 0 1 11.4459,-11.446 z"
           id="path4263"
           inkscape:connector-curvature="0" />
      </g>
      <g
         id="g4397">
        <rect
           style="opacity:1;fill:#ff0000;fill-opacity:1;stroke-width:8;stroke-miterlimit:4;stroke-dasharray:none"
           id="rect4363"
           width="6.0899324"
           height="30.449663"
           x="-7627.4077"
           y="-5604.4873"
           transform="matrix(0.88019386,0.47461433,-0.47461433,0.88019386,0,0)"
           inkscape:transform-center-x="-3.3832959"
           inkscape:transform-center-y="-0.67665918" />
        <g
           id="g4383">
          <path
             style="opacity:1;fill:#ff0000;fill-opacity:1"
             d="m -4139.8677,-8812.3827 a 79.594231,181.29799 0 0 0 75.0957,121.8457 79.594231,181.29799 0 0 0 75.0977,-121.8457 l -150.1934,0 z"
             id="path4256"
             inkscape:connector-curvature="0" />
          <g
             id="g4277">
            <ellipse
               style="opacity:1;fill:#004ec2;fill-opacity:1"
               id="ellipse4290"
               cx="-4065.1401"
               cy="-8857.7148"
               rx="68.899719"
               ry="156.93826" />
            <g
               id="g4347"
               transform="translate(0,-3.0449664)">
              <rect
                 y="-8692.8828"
                 x="-4066.7217"
                 height="24.35973"
                 width="8.1199102"
                 id="rect4341"
                 style="opacity:1;fill:#ff0000;fill-opacity:1;stroke-width:8;stroke-miterlimit:4;stroke-dasharray:none" />
              <rect
                 inkscape:transform-center-y="-13.696782"
                 inkscape:transform-center-x="-24.551319"
                 transform="matrix(0.62897744,-0.77742355,0.70457754,0.709627,0,0)"
                 y="-8668.083"
                 x="3158.1348"
                 height="6.9639206"
                 width="91.544075"
                 id="rect4343"
                 style="opacity:1;fill:#ff0000;fill-opacity:1;stroke-width:8;stroke-miterlimit:4;stroke-dasharray:none" />
              <rect
                 style="opacity:1;fill:#ff0000;fill-opacity:1;stroke-width:8;stroke-miterlimit:4;stroke-dasharray:none"
                 id="rect4345"
                 width="91.544075"
                 height="6.9639206"
                 x="-9249.1592"
                 y="-3557.4417"
                 transform="matrix(0.73490071,0.67817471,-0.75391928,0.65696706,0,0)"
                 inkscape:transform-center-x="-12.072633"
                 inkscape:transform-center-y="25.389915" />
            </g>
            <path
               sodipodi:nodetypes="csssc"
               inkscape:connector-curvature="0"
               id="path4394"
               d="m -4129.2224,-8798.4421 c 0,0 40.1484,-23.0064 61.576,-23.0064 21.4275,0 66.9892,23.0064 66.9892,23.0064 l 0,0 0,0"
               style="fill:none;fill-rule:evenodd;stroke:#000000;stroke-width:3;stroke-linecap:butt;stroke-linejoin:miter;stroke-miterlimit:4;stroke-dasharray:none;stroke-opacity:1" />
            <path
               sodipodi:nodetypes="csssc"
               inkscape:connector-curvature="0"
               id="path4398"
               d="m -4134.5735,-8891.4841 c 0,0 43.4923,-24.9224 66.7046,-24.9224 23.2121,0 72.5686,24.9224 72.5686,24.9224 l 0,0 0,0"
               style="fill:none;fill-rule:evenodd;stroke:#000000;stroke-width:3.24986839;stroke-linecap:butt;stroke-linejoin:miter;stroke-miterlimit:4;stroke-dasharray:none;stroke-opacity:1" />
            <path
               style="fill:none;fill-rule:evenodd;stroke:#000000;stroke-width:2.3128624;stroke-linecap:butt;stroke-linejoin:miter;stroke-miterlimit:4;stroke-dasharray:none;stroke-opacity:1"
               d="m -4114.5067,-8749.0768 c 0,0 30.9525,-17.737 47.4722,-17.737 16.5197,0 51.6457,17.737 51.6457,17.737 l 0,0 0,0"
               id="path4402"
               inkscape:connector-curvature="0"
               sodipodi:nodetypes="csssc" />
            <path
               style="fill:none;fill-rule:evenodd;stroke:#000000;stroke-width:2.68766451;stroke-linecap:butt;stroke-linejoin:miter;stroke-miterlimit:4;stroke-dasharray:none;stroke-opacity:1"
               d="m -4122.5934,-8945.6398 c 0,0 35.9685,-20.611 55.1652,-20.611 19.1966,0 60.0147,20.611 60.0147,20.611 l 0,0 0,0"
               id="path4406"
               inkscape:connector-curvature="0"
               sodipodi:nodetypes="csssc" />
            <path
               style="fill:none;fill-rule:evenodd;stroke:#000000;stroke-width:3.24986839;stroke-linecap:butt;stroke-linejoin:miter;stroke-miterlimit:4;stroke-dasharray:none;stroke-opacity:1"
               d="m -4134.5735,-8847.4841 c 0,0 43.4923,-24.9224 66.7046,-24.9224 23.2121,0 72.5686,24.9224 72.5686,24.9224 l 0,0 0,0"
               id="path4408"
               inkscape:connector-curvature="0"
               sodipodi:nodetypes="csssc" />
          </g>
        </g>
      </g>
      <g
         id="g4263">
        <g
           id="g4370"
           transform="translate(-32,0)">
          <path
             inkscape:connector-curvature="0"
             id="ellipse4249"
             d="m -4575.8496,-8812.3827 a 79.594231,181.29799 0 0 0 75.0957,121.8457 79.594231,181.29799 0 0 0 75.0977,-121.8457 l -150.1934,0 z"
             style="opacity:1;fill:#ff0000;fill-opacity:1" />
          <ellipse
             style="opacity:1;fill:#004ec2;fill-opacity:1"
             id="ellipse4254"
             cx="-4501.4487"
             cy="-8857.7148"
             rx="68.899719"
             ry="156.93826" />
          <rect
             y="-8692.8828"
             x="-4066.7217"
             height="24.35973"
             width="8.1199102"
             id="rect4354"
             style="opacity:1;fill:#ff0000;fill-opacity:1;stroke-width:8;stroke-miterlimit:4;stroke-dasharray:none"
             transform="matrix(-1,0,0,1,-8567.4073,-3.0449664)" />
          <rect
             inkscape:transform-center-y="-13.696782"
             inkscape:transform-center-x="-24.551319"
             transform="matrix(-0.62897744,-0.77742355,-0.70457754,0.709627,-8567.4073,-3.0449664)"
             y="-8668.083"
             x="3158.1348"
             height="6.9639206"
             width="91.544075"
             id="rect4356"
             style="opacity:1;fill:#ff0000;fill-opacity:1;stroke-width:8;stroke-miterlimit:4;stroke-dasharray:none" />
          <rect
             style="opacity:1;fill:#ff0000;fill-opacity:1;stroke-width:8;stroke-miterlimit:4;stroke-dasharray:none"
             id="rect4358"
             width="91.544075"
             height="6.9639206"
             x="-9249.1592"
             y="-3557.4417"
             transform="matrix(-0.73490071,0.67817471,0.75391928,0.65696706,-8567.4073,-3.0449664)"
             inkscape:transform-center-x="-12.072633"
             inkscape:transform-center-y="25.389915" />
          <rect
             style="opacity:1;fill:#ff0000;fill-opacity:1;stroke-width:8;stroke-miterlimit:4;stroke-dasharray:none"
             id="rect4365"
             width="6.0899324"
             height="30.449663"
             x="-85.610947"
             y="-9671.1338"
             transform="matrix(-0.88019386,0.47461433,0.47461433,0.88019386,0,0)"
             inkscape:transform-center-x="3.3831341"
             inkscape:transform-center-y="-0.67633855" />
        </g>
        <path
           style="fill:none;fill-rule:evenodd;stroke:#000000;stroke-width:3;stroke-linecap:butt;stroke-linejoin:miter;stroke-miterlimit:4;stroke-dasharray:none;stroke-opacity:1"
           d="m -4597.2224,-8798.4421 c 0,0 40.1484,-23.0064 61.576,-23.0064 21.4275,0 66.9892,23.0064 66.9892,23.0064 l 0,0 0,0"
           id="path4392"
           inkscape:connector-curvature="0"
           sodipodi:nodetypes="csssc" />
        <path
           style="fill:none;fill-rule:evenodd;stroke:#000000;stroke-width:3.24986839;stroke-linecap:butt;stroke-linejoin:miter;stroke-miterlimit:4;stroke-dasharray:none;stroke-opacity:1"
           d="m -4602.5735,-8891.4841 c 0,0 43.4923,-24.9224 66.7046,-24.9224 23.2121,0 72.5686,24.9224 72.5686,24.9224 l 0,0 0,0"
           id="path4396"
           inkscape:connector-curvature="0"
           sodipodi:nodetypes="csssc" />
        <path
           sodipodi:nodetypes="csssc"
           inkscape:connector-curvature="0"
           id="path4400"
           d="m -4582.5067,-8749.0768 c 0,0 30.9525,-17.737 47.4722,-17.737 16.5197,0 51.6457,17.737 51.6457,17.737 l 0,0 0,0"
           style="fill:none;fill-rule:evenodd;stroke:#000000;stroke-width:2.3128624;stroke-linecap:butt;stroke-linejoin:miter;stroke-miterlimit:4;stroke-dasharray:none;stroke-opacity:1" />
        <path
           sodipodi:nodetypes="csssc"
           inkscape:connector-curvature="0"
           id="path4404"
           d="m -4592.5934,-8945.6398 c 0,0 35.9685,-20.611 55.1652,-20.611 19.1966,0 60.0147,20.611 60.0147,20.611 l 0,0 0,0"
           style="fill:none;fill-rule:evenodd;stroke:#000000;stroke-width:2.68766451;stroke-linecap:butt;stroke-linejoin:miter;stroke-miterlimit:4;stroke-dasharray:none;stroke-opacity:1" />
        <path
           sodipodi:nodetypes="csssc"
           inkscape:connector-curvature="0"
           id="path4410"
           d="m -4602.5735,-8847.4841 c 0,0 43.4923,-24.9224 66.7046,-24.9224 23.2121,0 72.5686,24.9224 72.5686,24.9224 l 0,0 0,0"
           style="fill:none;fill-rule:evenodd;stroke:#000000;stroke-width:3.24986839;stroke-linecap:butt;stroke-linejoin:miter;stroke-miterlimit:4;stroke-dasharray:none;stroke-opacity:1" />
      </g>
    </g>
  </g>
</svg>
